# xmcd CD database file
#
# Track frame offsets:
#	150
#	91507
#	123697
#	151290
#
# Disc length: 2449 seconds
#
# Revision: 0
# Processed by: cddbd v1.5.1PL0 Copyright (c) Steve Scherf et al.
# Submitted via: CDex 1.51
#
DISCID=25098f04
DTITLE=Zbigniew Namys³owski Quintet - Kujaviak Goes Funky
DYEAR=1975
DGENRE=Jazz
TTITLE0=Kujaviak Goes Funky - Gesówka, Appenzeller's Dance
TTITLE1=Smutny Jasio
TTITLE2=Quiet Afternoon
TTITLE3=Zab³¹kana owieczka
EXTD=YEAR: 1975
EXTT0=
EXTT1=
EXTT2=
EXTT3=
PLAYORDER=
